<svg width="39" height="30" viewBox="0 0 39 30" fill="none" xmlns="http://www.w3.org/2000/svg">
<path d="M1.10811 9.11842L0 19.1053L8.64865 28.3493L31.5135 30L39 19.0227L28 7L1.10811 9.11842Z" fill="#00672E"/>
<mask id="path-2-outside-1_3001_95" maskUnits="userSpaceOnUse" x="10" y="11" width="16" height="14" fill="black">
<rect fill="white" x="10" y="11" width="16" height="14"/>
<path d="M21.072 24L17.52 19.008L17.112 18.624L12.624 12.6H15.24L18.48 17.04L18.888 17.376L23.688 24H21.072ZM12.408 24L17.112 17.664L18.336 19.248L14.952 24H12.408ZM19.056 18.6L17.808 17.064L20.952 12.6H23.472L19.056 18.6Z"/>
</mask>
<path d="M21.072 24L17.52 19.008L17.112 18.624L12.624 12.6H15.24L18.48 17.04L18.888 17.376L23.688 24H21.072ZM12.408 24L17.112 17.664L18.336 19.248L14.952 24H12.408ZM19.056 18.6L17.808 17.064L20.952 12.6H23.472L19.056 18.6Z" fill="white"/>
<path d="M21.072 24L20.2572 24.5798L20.5562 25H21.072V24ZM17.52 19.008L18.3348 18.4282L18.2774 18.3476L18.2054 18.2798L17.52 19.008ZM17.112 18.624L16.3101 19.2214L16.3626 19.2919L16.4266 19.3522L17.112 18.624ZM12.624 12.6V11.6H10.632L11.8221 13.1974L12.624 12.6ZM15.24 12.6L16.0478 12.0105L15.7482 11.6H15.24V12.6ZM18.48 17.04L17.6722 17.6295L17.7467 17.7316L17.8443 17.8119L18.48 17.04ZM18.888 17.376L19.6977 16.7892L19.6226 16.6855L19.5237 16.6041L18.888 17.376ZM23.688 24V25H25.6476L24.4978 23.4132L23.688 24ZM12.408 24L11.6051 23.4039L10.4201 25H12.408V24ZM17.112 17.664L17.9033 17.0526L17.0961 16.0079L16.3091 17.0679L17.112 17.664ZM18.336 19.248L19.1506 19.8281L19.581 19.2237L19.1273 18.6366L18.336 19.248ZM14.952 24V25H15.4675L15.7666 24.5801L14.952 24ZM19.056 18.6L18.2799 19.2306L19.0951 20.2339L19.8614 19.1928L19.056 18.6ZM17.808 17.064L16.9904 16.4882L16.5545 17.1071L17.0319 17.6946L17.808 17.064ZM20.952 12.6V11.6H20.4332L20.1344 12.0242L20.952 12.6ZM23.472 12.6L24.2774 13.1928L25.4497 11.6H23.472V12.6ZM21.8868 23.4202L18.3348 18.4282L16.7052 19.5878L20.2572 24.5798L21.8868 23.4202ZM18.2054 18.2798L17.7974 17.8958L16.4266 19.3522L16.8346 19.7362L18.2054 18.2798ZM17.9139 18.0266L13.4259 12.0026L11.8221 13.1974L16.3101 19.2214L17.9139 18.0266ZM12.624 13.6H15.24V11.6H12.624V13.6ZM14.4322 13.1895L17.6722 17.6295L19.2878 16.4505L16.0478 12.0105L14.4322 13.1895ZM17.8443 17.8119L18.2523 18.1479L19.5237 16.6041L19.1157 16.2681L17.8443 17.8119ZM18.0783 17.9628L22.8783 24.5868L24.4978 23.4132L19.6977 16.7892L18.0783 17.9628ZM23.688 23H21.072V25H23.688V23ZM13.2109 24.5961L17.9149 18.2601L16.3091 17.0679L11.6051 23.4039L13.2109 24.5961ZM16.3207 18.2754L17.5447 19.8594L19.1273 18.6366L17.9033 17.0526L16.3207 18.2754ZM17.5214 18.6679L14.1374 23.4199L15.7666 24.5801L19.1506 19.8281L17.5214 18.6679ZM14.952 23H12.408V25H14.952V23ZM19.8321 17.9694L18.5841 16.4334L17.0319 17.6946L18.2799 19.2306L19.8321 17.9694ZM18.6256 17.6398L21.7696 13.1758L20.1344 12.0242L16.9904 16.4882L18.6256 17.6398ZM20.952 13.6H23.472V11.6H20.952V13.6ZM22.6666 12.0072L18.2506 18.0072L19.8614 19.1928L24.2774 13.1928L22.6666 12.0072Z" fill="#00672E" mask="url(#path-2-outside-1_3001_95)"/>
</svg>
